<?xml version="1.0" encoding="UTF-8"?>
<svg width="100px" height="100px" viewBox="0 0 100 100" version="1.1" xmlns="http://www.w3.org/2000/svg" xmlns:xlink="http://www.w3.org/1999/xlink">
    <!-- Generator: Sketch 42 (36781) - http://www.bohemiancoding.com/sketch -->
    <title>manage</title>
    <desc>Created with Sketch.</desc>
    <defs></defs>
    <g id="Symbols" stroke="none" stroke-width="1" fill="none" fill-rule="evenodd">
        <g id="manage" fill-rule="nonzero">
            <g>
                <g id="Group">
                    <path d="M54.7918385,44.5283792 L61.6340779,44.5283792 L61.6340779,37.6861397 L54.7918385,37.6861397 L54.7918385,44.5283792 Z M20.580441,78.7399771 L27.4226804,78.7399771 L27.4226804,71.8977377 L20.580441,71.8977377 L20.580441,78.7399771 Z M20.580441,61.6342784 L27.4226804,61.6342784 L27.4226804,54.7920389 L20.580441,54.7920389 L20.580441,61.6342784 Z M20.580441,44.5283792 L27.4226804,44.5283792 L27.4226804,37.6861397 L20.580441,37.6861397 L20.580441,44.5283792 Z M54.7918385,78.7399771 L61.6340779,78.7399771 L61.6340779,71.8977377 L54.7918385,71.8977377 L54.7918385,78.7399771 Z M54.7918385,61.6342784 L61.6340779,61.6342784 L61.6340779,54.7920389 L54.7918385,54.7920389 L54.7918385,61.6342784 Z M71.8977377,61.6342784 L78.7399771,61.6342784 L78.7399771,54.7920389 L71.8977377,54.7920389 L71.8977377,61.6342784 L71.8977377,61.6342784 Z M71.8977377,44.5283792 L78.7399771,44.5283792 L78.7399771,37.6861397 L71.8977377,37.6861397 L71.8977377,44.5283792 L71.8977377,44.5283792 Z M37.6861397,78.7399771 L44.5283792,78.7399771 L44.5283792,71.8977377 L37.6861397,71.8977377 L37.6861397,78.7399771 Z M37.6861397,61.6342784 L44.5283792,61.6342784 L44.5283792,54.7920389 L37.6861397,54.7920389 L37.6861397,61.6342784 Z M37.6861397,44.5283792 L44.5283792,44.5283792 L44.5283792,37.6861397 L37.6861397,37.6861397 L37.6861397,44.5283792 Z" id="Shape" fill="#AAB1BA"></path>
                    <path d="M27.4226804,3.47454181 L27.4226804,10.3167812 C27.4226804,12.1984822 25.8831615,13.7380011 24.0014605,13.7380011 C23.1461054,13.7380011 22.2909507,13.395819 21.6065865,12.7116552 C20.9224227,12.0274914 20.5802405,11.1721363 20.5802405,10.3167812 L20.5802405,3.47454181 C20.5802405,1.59284078 22.1197595,0.0533218786 24.0014605,0.0533218786 C24.8568156,0.0533218786 25.7119702,0.395504009 26.3963345,1.07966781 C27.0804983,1.76403207 27.4226804,2.61938717 27.4226804,3.47454181 Z M78.7399771,3.47454181 L78.7399771,10.3167812 C78.7399771,12.1984822 77.2004582,13.7380011 75.3187572,13.7380011 C74.2924112,13.7380011 73.4370561,13.395819 72.9238832,12.7116552 C72.2397194,12.0274914 71.8975372,11.1721363 71.8975372,10.3167812 L71.8975372,3.47454181 C71.8975372,1.59284078 73.4370561,0.0533218786 75.3187572,0.0533218786 C76.3451031,0.0533218786 77.2004582,0.395504009 77.7136312,1.07966781 C78.397795,1.76403207 78.7399771,2.61938717 78.7399771,3.47454181 Z M61.6342784,3.47454181 L61.6342784,10.3167812 C61.6342784,12.1984822 60.0947595,13.7380011 58.2130584,13.7380011 C57.1867125,13.7380011 56.3313574,13.395819 55.8181844,12.7116552 C55.1340206,12.0274914 54.7918385,11.1721363 54.7918385,10.3167812 L54.7918385,3.47454181 C54.7918385,1.59284078 56.3313574,0.0533218786 58.2130584,0.0533218786 C59.2394044,0.0533218786 60.0947595,0.395504009 60.6079324,1.07966781 C61.2920962,1.76403207 61.6342784,2.61938717 61.6342784,3.47454181 Z M44.5283792,3.47454181 L44.5283792,10.3167812 C44.5283792,12.1984822 42.9888603,13.7380011 41.1071592,13.7380011 C40.0808133,13.7380011 39.2254582,13.395819 38.7122852,12.7116552 C38.0283219,12.0274914 37.6861397,11.1721363 37.6861397,10.3169817 L37.6861397,3.47454181 C37.6861397,1.59284078 39.2256586,0.0533218786 41.1073597,0.0533218786 C42.1337056,0.0533218786 42.9890607,0.395504009 43.5022337,1.07966781 C44.1863975,1.76403207 44.5283792,2.61938717 44.5283792,3.47454181 Z" id="Shape" fill="#ECF4F7"></path>
                    <path d="M99.2668958,20.580441 L99.2668958,82.161197 C99.2668958,76.5162944 96.5300401,71.5555556 92.4246564,68.4765178 L92.4246564,27.4226804 L6.89576174,27.4226804 L6.89576174,87.2929267 C6.89576174,90.2009737 9.11944444,92.4246564 12.0274914,92.4246564 L68.4765178,92.4246564 C71.5555556,96.5300401 76.5162944,99.2668958 82.161197,99.2668958 L6.89576174,99.2668958 C3.47454181,99.2668958 0.0535223368,95.8456758 0.0535223368,92.4246564 L0.0535223368,20.580441 L99.2668958,20.580441 L99.2668958,20.580441 Z" id="Shape" fill="#3fa9f5"></path>
                    <path d="M99.2668958,10.3169817 L99.2668958,20.580441 L0.0535223368,20.580441 L0.0535223368,10.3169817 C0.0535223368,6.89576174 3.47474227,3.47474227 6.89576174,3.47474227 L20.580441,3.47474227 L20.580441,10.3169817 C20.580441,11.1723368 20.9226231,12.0274914 21.6067869,12.7118557 C22.2909507,13.3960195 23.1463058,13.7382016 24.0016609,13.7382016 C25.883362,13.7382016 27.4228809,12.1986827 27.4228809,10.3169817 L27.4228809,3.47454181 L37.6861397,3.47454181 L37.6861397,10.3167812 C37.6861397,11.1721363 38.0283219,12.027291 38.7124857,12.7116552 C39.3966495,13.395819 40.2520046,13.7380011 41.1073597,13.7380011 C42.9890607,13.7380011 44.5285796,12.1984822 44.5285796,10.3167812 L44.5285796,3.47454181 L54.7920389,3.47454181 L54.7920389,10.3167812 C54.7920389,11.1721363 55.1342211,12.027291 55.8183849,12.7116552 C56.5025487,13.395819 57.3579038,13.7380011 58.2132589,13.7380011 C60.0949599,13.7380011 61.6344788,12.1984822 61.6344788,10.3167812 L61.6344788,3.47454181 L71.8979381,3.47454181 L71.8979381,10.3167812 C71.8979381,11.1721363 72.2401203,12.027291 72.9242841,12.7116552 C73.6084479,13.395819 74.463803,13.7380011 75.3191581,13.7380011 C77.2008591,13.7380011 78.740378,12.1984822 78.740378,10.3167812 L78.740378,3.47454181 L92.4250573,3.47454181 C95.8456758,3.47454181 99.2668958,6.89576174 99.2668958,10.3169817" id="Shape" fill="#142944"></path>
                    <path d="M92.4246564,68.4765178 C96.5300401,71.5555556 99.2668958,76.5162944 99.2668958,82.161197 C99.2668958,91.5693013 91.5693013,99.2668958 82.161197,99.2668958 C76.5162944,99.2668958 71.5555556,96.5300401 68.4765178,92.4246564 C66.2528351,89.5166094 65.0552978,85.9243986 65.0552978,82.161197 C65.0552978,72.7530928 72.7528923,65.0554983 82.1609966,65.0554983 C85.9243986,65.0552978 89.5166094,66.4238259 92.4246564,68.4765178" id="Shape" fill="#ECF4F7"></path>
                </g>
                <path d="M82.2034016,100 C72.3729659,100 64.4068032,92.0338374 64.4068032,82.2034016 C64.4068032,72.3729659 72.3729659,64.4068032 82.2034016,64.4068032 C92.0338374,64.4068032 100,72.3729659 100,82.2034016 C100,92.0338374 92.0338374,100 82.2034016,100 Z M82.2034016,66.1016512 C73.3899143,66.1016512 66.1016512,73.3897157 66.1016512,82.2034016 C66.1016512,91.0170875 73.3897157,98.3051521 82.2034016,98.3051521 C91.0170875,98.3051521 98.3051521,91.0170875 98.3051521,82.2034016 C98.3051521,73.3897157 91.0168889,66.1016512 82.2034016,66.1016512 Z M63.55928,100 L7.62711359,100 C3.72874488,100 0,96.2712551 0,92.3728864 L0,21.1864929 C0,20.6780186 0.339049034,20.3389696 0.847523274,20.3389696 L92.3728864,20.3389696 C92.8813606,20.3389696 93.2204097,20.6780186 93.2204097,21.1864929 C93.2204097,21.6949671 92.8813606,22.0340161 92.3728864,22.0340161 L1.69484792,22.0340161 L1.69484792,92.3728864 C1.69484792,95.2543066 4.74569336,98.3051521 7.62711359,98.3051521 L63.55928,98.3051521 C64.0677542,98.3051521 64.4068032,98.6442011 64.4068032,99.1526753 C64.4068032,99.660951 64.0677542,100 63.55928,100 Z M60.1693855,93.2202111 L12.711856,93.2202111 C9.49158535,93.2202111 6.77959032,90.5084147 6.77959032,87.2879454 L6.77959032,27.9660832 C6.77959032,27.4576089 7.11863935,27.1185599 7.62711359,27.1185599 L92.3728864,27.1185599 C92.8813606,27.1185599 93.2204097,27.4576089 93.2204097,27.9660832 L93.2204097,60.1693855 C93.2204097,60.6778597 92.8813606,61.0169088 92.3728864,61.0169088 C91.8644122,61.0169088 91.5253631,60.6778597 91.5253631,60.1693855 L91.5253631,28.8136065 L8.47463687,28.8136065 L8.47463687,87.288144 C8.47463687,89.66109 10.3391086,91.5253631 12.711856,91.5253631 L60.1693855,91.5253631 C60.6778597,91.5253631 61.0169088,91.8644122 61.0169088,92.3728864 C61.0169088,92.8813606 60.6778597,93.2202111 60.1693855,93.2202111 Z M92.3728864,83.0507263 L82.2034016,83.0507263 C81.6949274,83.0507263 81.3558783,82.7116772 81.3558783,82.203203 L81.3558783,75.4236127 C81.3558783,74.9151384 81.6949274,74.5760894 82.2034016,74.5760894 C82.7118759,74.5760894 83.0509249,74.9151384 83.0509249,75.4236127 L83.0509249,81.3558783 L92.3728864,81.3558783 C92.8813606,81.3558783 93.2204097,81.6949274 93.2204097,82.2034016 C93.2202111,82.7118759 92.8813606,83.0507263 92.3728864,83.0507263 Z M58.4745376,79.6610304 L55.0846431,79.6610304 C54.5761688,79.6610304 54.2371198,79.3219814 54.2371198,78.8135071 L54.2371198,72.0339168 C54.2371198,71.5254426 54.5761688,71.1863935 55.0846431,71.1863935 L58.4745376,71.1863935 C58.9830118,71.1863935 59.3220608,71.5254426 59.3220608,72.0339168 C59.3220608,72.5423911 58.9830118,72.8814401 58.4745376,72.8814401 L55.9321664,72.8814401 L55.9321664,77.9661825 L58.4745376,77.9661825 C58.9830118,77.9661825 59.3220608,78.3052315 59.3220608,78.8137058 C59.3220608,79.32218 58.9830118,79.6610304 58.4745376,79.6610304 Z M44.9151583,79.6610304 L38.135568,79.6610304 C37.6270937,79.6610304 37.2880447,79.3219814 37.2880447,78.8135071 L37.2880447,72.0339168 C37.2880447,71.5254426 37.6270937,71.1863935 38.135568,71.1863935 L44.9151583,71.1863935 C45.4236325,71.1863935 45.7626816,71.5254426 45.7626816,72.0339168 L45.7626816,78.8135071 C45.7626816,79.3219814 45.4236325,79.6610304 44.9151583,79.6610304 Z M38.9830912,77.9659839 L44.0678336,77.9659839 L44.0678336,72.8812415 L38.9830912,72.8812415 L38.9830912,77.9659839 Z M27.9660832,79.6610304 L21.1864929,79.6610304 C20.6780186,79.6610304 20.3389696,79.3219814 20.3389696,78.8135071 L20.3389696,72.0339168 C20.3389696,71.5254426 20.6780186,71.1863935 21.1864929,71.1863935 L27.9660832,71.1863935 C28.4745574,71.1863935 28.8136065,71.5254426 28.8136065,72.0339168 L28.8136065,78.8135071 C28.8136065,79.3219814 28.4745574,79.6610304 27.9660832,79.6610304 Z M22.0338175,77.9659839 L27.1185599,77.9659839 L27.1185599,72.8812415 L22.0338175,72.8812415 L22.0338175,77.9659839 L22.0338175,77.9659839 Z M99.1524767,64.4068032 C98.6440025,64.4068032 98.3049535,64.0677542 98.3049535,63.55928 L98.3049535,11.0170081 C98.3049535,8.13558783 95.254108,5.0847424 92.3726878,5.0847424 L85.5930975,5.0847424 C85.0846232,5.0847424 84.7455742,4.74569336 84.7455742,4.23721912 C84.7455742,3.72874488 85.0846232,3.38969585 85.5930975,3.38969585 L92.3726878,3.38969585 C96.2710565,3.38969585 99.9998014,7.11844073 99.9998014,11.0168094 L99.9998014,63.55928 C100,64.0677542 99.660951,64.4068032 99.1524767,64.4068032 Z M61.864432,62.7117567 L55.0848417,62.7117567 C54.5763675,62.7117567 54.2373184,62.3727076 54.2373184,61.8642334 L54.2373184,55.0846431 C54.2373184,54.5761688 54.5763675,54.2371198 55.0848417,54.2371198 L61.864432,54.2371198 C62.3729063,54.2371198 62.7119553,54.5761688 62.7119553,55.0846431 L62.7119553,61.8642334 C62.7117567,62.3729063 62.3729063,62.7117567 61.864432,62.7117567 Z M55.9321664,61.0169088 L61.0169088,61.0169088 L61.0169088,55.9321664 L55.9321664,55.9321664 L55.9321664,61.0169088 Z M44.9151583,62.7117567 L38.135568,62.7117567 C37.6270937,62.7117567 37.2880447,62.3727076 37.2880447,61.8642334 L37.2880447,55.0846431 C37.2880447,54.5761688 37.6270937,54.2371198 38.135568,54.2371198 L44.9151583,54.2371198 C45.4236325,54.2371198 45.7626816,54.5761688 45.7626816,55.0846431 L45.7626816,61.8642334 C45.7626816,62.3729063 45.4236325,62.7117567 44.9151583,62.7117567 Z M38.9830912,61.0169088 L44.0678336,61.0169088 L44.0678336,55.9321664 L38.9830912,55.9321664 L38.9830912,61.0169088 Z M27.9660832,62.7117567 L21.1864929,62.7117567 C20.6780186,62.7117567 20.3389696,62.3727076 20.3389696,61.8642334 L20.3389696,55.0846431 C20.3389696,54.5761688 20.6780186,54.2371198 21.1864929,54.2371198 L27.9660832,54.2371198 C28.4745574,54.2371198 28.8136065,54.5761688 28.8136065,55.0846431 L28.8136065,61.8642334 C28.8136065,62.3729063 28.4745574,62.7117567 27.9660832,62.7117567 Z M22.0338175,61.0169088 L27.1185599,61.0169088 L27.1185599,55.9321664 L22.0338175,55.9321664 L22.0338175,61.0169088 L22.0338175,61.0169088 Z M78.8135071,59.3220608 C78.3050329,59.3220608 77.9659839,58.9830118 77.9659839,58.4745376 L77.9659839,55.9321664 L72.8812415,55.9321664 L72.8812415,58.4745376 C72.8812415,58.9830118 72.5421924,59.3220608 72.0337182,59.3220608 C71.525244,59.3220608 71.1861949,58.9830118 71.1861949,58.4745376 L71.1861949,55.0846431 C71.1861949,54.5761688 71.525244,54.2371198 72.0337182,54.2371198 L78.8135071,54.2371198 C79.3219814,54.2371198 79.6610304,54.5761688 79.6610304,55.0846431 L79.6610304,58.4745376 C79.6610304,58.9830118 79.3219814,59.3220608 78.8135071,59.3220608 Z M78.8135071,45.7626816 L72.0339168,45.7626816 C71.5254426,45.7626816 71.1863935,45.4236325 71.1863935,44.9151583 L71.1863935,38.135568 C71.1863935,37.6270937 71.5254426,37.2880447 72.0339168,37.2880447 L78.8135071,37.2880447 C79.3219814,37.2880447 79.6610304,37.6270937 79.6610304,38.135568 L79.6610304,44.9151583 C79.6610304,45.4236325 79.3219814,45.7626816 78.8135071,45.7626816 Z M72.8812415,44.0678336 L77.9659839,44.0678336 L77.9659839,38.9830912 L72.8812415,38.9830912 L72.8812415,44.0678336 Z M61.864432,45.7626816 L55.0848417,45.7626816 C54.5763675,45.7626816 54.2373184,45.4236325 54.2373184,44.9151583 L54.2373184,38.135568 C54.2373184,37.6270937 54.5763675,37.2880447 55.0848417,37.2880447 L61.864432,37.2880447 C62.3729063,37.2880447 62.7119553,37.6270937 62.7119553,38.135568 L62.7119553,44.9151583 C62.7117567,45.4236325 62.3729063,45.7626816 61.864432,45.7626816 Z M55.9321664,44.0678336 L61.0169088,44.0678336 L61.0169088,38.9830912 L55.9321664,38.9830912 L55.9321664,44.0678336 Z M44.9151583,45.7626816 L38.135568,45.7626816 C37.6270937,45.7626816 37.2880447,45.4236325 37.2880447,44.9151583 L37.2880447,38.135568 C37.2880447,37.6270937 37.6270937,37.2880447 38.135568,37.2880447 L44.9151583,37.2880447 C45.4236325,37.2880447 45.7626816,37.6270937 45.7626816,38.135568 L45.7626816,44.9151583 C45.7626816,45.4236325 45.4236325,45.7626816 44.9151583,45.7626816 Z M38.9830912,44.0678336 L44.0678336,44.0678336 L44.0678336,38.9830912 L38.9830912,38.9830912 L38.9830912,44.0678336 Z M27.9660832,45.7626816 L21.1864929,45.7626816 C20.6780186,45.7626816 20.3389696,45.4236325 20.3389696,44.9151583 L20.3389696,38.135568 C20.3389696,37.6270937 20.6780186,37.2880447 21.1864929,37.2880447 L27.9660832,37.2880447 C28.4745574,37.2880447 28.8136065,37.6270937 28.8136065,38.135568 L28.8136065,44.9151583 C28.8136065,45.4236325 28.4745574,45.7626816 27.9660832,45.7626816 Z M22.0338175,44.0678336 L27.1185599,44.0678336 L27.1185599,38.9830912 L22.0338175,38.9830912 L22.0338175,44.0678336 L22.0338175,44.0678336 Z M75.4236127,15.2542272 C73.0506667,15.2542272 71.1863935,13.3897554 71.1863935,11.0170081 L71.1863935,4.23721912 C71.1863935,1.86447175 73.0508653,0 75.4236127,0 C77.7965587,0 79.6608318,1.86447175 79.6608318,4.23721912 L79.6608318,11.0168094 C79.6610304,13.3897554 77.7965587,15.2542272 75.4236127,15.2542272 Z M75.4236127,1.69484792 C74.0676152,1.69484792 72.8812415,2.88122161 72.8812415,4.23721912 L72.8812415,11.0168094 C72.8812415,12.372807 74.0676152,13.5591806 75.4236127,13.5591806 C76.7796102,13.5591806 77.9659839,12.372807 77.9659839,11.0168094 L77.9659839,4.23721912 C77.9659839,2.88142023 76.7796102,1.69484792 75.4236127,1.69484792 Z M58.4745376,15.2542272 C56.1015916,15.2542272 54.2373184,13.3897554 54.2373184,11.0170081 L54.2373184,4.23721912 C54.2373184,1.86447175 56.1015916,0 58.4745376,0 C60.8474835,0 62.7117567,1.86447175 62.7117567,4.23721912 L62.7117567,11.0168094 C62.7117567,13.3897554 60.8474835,15.2542272 58.4745376,15.2542272 Z M58.4745376,1.69484792 C57.11854,1.69484792 55.9321664,2.88122161 55.9321664,4.23721912 L55.9321664,11.0168094 C55.9321664,12.372807 57.11854,13.5591806 58.4745376,13.5591806 C59.8305351,13.5591806 61.0169088,12.372807 61.0169088,11.0168094 L61.0169088,4.23721912 C61.0169088,2.88142023 59.8305351,1.69484792 58.4745376,1.69484792 Z M41.5254624,15.2542272 C39.1525165,15.2542272 37.2882433,13.3897554 37.2882433,11.0170081 L37.2882433,4.23721912 C37.2880447,1.86447175 39.1525165,0 41.5254624,0 C43.8982098,0 45.7626816,1.86447175 45.7626816,4.23721912 L45.7626816,11.0168094 C45.7626816,13.3897554 43.8982098,15.2542272 41.5254624,15.2542272 Z M41.5254624,1.69484792 C40.1694649,1.69484792 38.9830912,2.88122161 38.9830912,4.23721912 L38.9830912,11.0168094 C38.9830912,12.372807 40.1694649,13.5591806 41.5254624,13.5591806 C42.88146,13.5591806 44.0678336,12.372807 44.0678336,11.0168094 L44.0678336,4.23721912 C44.0678336,2.88142023 42.8812613,1.69484792 41.5254624,1.69484792 Z M24.5761887,15.2542272 C22.2032427,15.2542272 20.3389696,13.3897554 20.3389696,11.0170081 L20.3389696,4.23721912 C20.3389696,1.86447175 22.2034413,0 24.5761887,0 C26.9491347,0 28.8134078,1.86447175 28.8134078,4.23721912 L28.8134078,11.0168094 C28.8136065,13.3897554 26.9491347,15.2542272 24.5761887,15.2542272 Z M24.5761887,1.69484792 C23.2201912,1.69484792 22.0338175,2.88122161 22.0338175,4.23721912 L22.0338175,11.0168094 C22.0338175,12.372807 23.2201912,13.5591806 24.5761887,13.5591806 C25.9321862,13.5591806 27.1185599,12.372807 27.1185599,11.0168094 L27.1185599,4.23721912 C27.1185599,2.88142023 25.9321862,1.69484792 24.5761887,1.69484792 Z M0.847523274,15.2542272 C0.339049034,15.2542272 0,14.9151782 0,14.4067039 L0,11.0170081 C0,7.11863935 3.72874488,3.38989447 7.62711359,3.38989447 L14.4067039,3.38989447 C14.9151782,3.38989447 15.2542272,3.72894351 15.2542272,4.23741775 C15.2542272,4.74589198 14.9151782,5.0847424 14.4067039,5.0847424 L7.62711359,5.0847424 C4.74569336,5.0847424 1.69484792,8.13558783 1.69484792,11.0170081 L1.69484792,14.4069025 C1.69484792,14.9151782 1.35599751,15.2542272 0.847523274,15.2542272 Z" id="Shape" fill="#51565F"></path>
            </g>
        </g>
    </g>
</svg>