<?xml version="1.0" encoding="UTF-8"?>
<svg width="87px" height="100px" viewBox="0 0 87 100" version="1.1" xmlns="http://www.w3.org/2000/svg" xmlns:xlink="http://www.w3.org/1999/xlink">
    <!-- Generator: Sketch 42 (36781) - http://www.bohemiancoding.com/sketch -->
    <title>prescription</title>
    <desc>Created with Sketch.</desc>
    <defs></defs>
    <g id="Symbols" stroke="none" stroke-width="1" fill="none" fill-rule="evenodd">
        <g id="prescription" fill-rule="nonzero">
            <g id="medical-history">
                <g id="Layer_1">
                    <g id="Group" transform="translate(0.793651, 0.793651)">
                        <path d="M44.1005952,8.51845238 C44.1005952,7.6718254 43.4234127,6.82539683 42.4075397,6.82539683 C41.3916667,6.82539683 40.7144841,7.67202381 40.7144841,8.51845238 C40.7144841,9.36488095 41.3916667,10.2115079 42.4075397,10.2115079 C43.4232143,10.2117063 44.1005952,9.36507937 44.1005952,8.51845238 L44.1005952,8.51845238 Z M61.031746,13.5978175 L61.031746,16.984127 L23.7831349,16.984127 L23.7831349,13.5978175 L23.7831349,6.82539683 L34.1111111,6.82539683 C34.9577381,2.93115079 38.3438492,0.0529761905 42.4073413,0.0529761905 C46.4708333,0.0529761905 49.8571429,2.93115079 50.7037698,6.82539683 L61.031746,6.82539683 L61.031746,13.5978175 Z" id="Shape" fill="#3fa9f5"></path>
                        <path d="M84.7355159,13.5978175 L84.7355159,91.4813492 C84.7355159,94.8676587 81.3492063,98.2537698 77.9630952,98.2537698 L6.85198413,98.2537698 C3.4656746,98.2537698 0.0795634921,94.8674603 0.0795634921,91.4813492 L0.0795634921,13.5978175 C0.0793650794,10.2117063 3.4656746,6.82539683 6.85178571,6.82539683 L23.7829365,6.82539683 L23.7829365,13.5978175 L6.85178571,13.5978175 L6.85178571,86.4019841 C6.85178571,89.2803571 9.05277778,91.4813492 11.9311508,91.4813492 L61.031746,91.4813492 L67.8041667,91.4813492 L77.9628968,81.322619 L77.9628968,77.9365079 L77.9628968,13.5978175 L61.031746,13.5978175 L61.031746,6.82539683 L77.9628968,6.82539683 C81.3492063,6.82539683 84.7355159,10.2117063 84.7355159,13.5978175" id="Shape" fill="#142944"></path>
                        <path d="M77.9628968,13.5978175 L77.9628968,77.9365079 L64.4178571,77.9365079 C62.5553571,77.9365079 61.0315476,79.6295635 61.0315476,81.3228175 L61.0315476,91.4815476 L11.9311508,91.4815476 C9.05277778,91.4815476 6.85178571,89.2805556 6.85178571,86.4021825 L6.85178571,13.5978175 L23.7829365,13.5978175 L23.7829365,16.984127 L61.031746,16.984127 L61.031746,13.5978175 L77.9628968,13.5978175 Z M64.4180556,54.2327381 C64.4180556,56.0952381 65.9418651,57.6190476 67.8043651,57.6190476 C69.6668651,57.6190476 71.1906746,56.0952381 71.1906746,54.2327381 C71.1906746,52.3702381 69.6668651,50.8464286 67.8043651,50.8464286 C65.9418651,50.846627 64.4180556,52.3704365 64.4180556,54.2327381 L64.4180556,54.2327381 Z" id="Shape" fill="#ECF4F7"></path>
                        <path d="M67.8041667,50.846627 C69.6666667,50.846627 71.1904762,52.3704365 71.1904762,54.2329365 C71.1904762,56.0954365 69.6666667,57.619246 67.8041667,57.619246 C65.9416667,57.619246 64.4178571,56.0954365 64.4178571,54.2329365 C64.4178571,52.3704365 65.9418651,50.846627 67.8041667,50.846627" id="Shape" fill="#94BF1E"></path>
                        <path d="M77.9628968,77.9365079 L77.9628968,81.3228175 L67.8041667,91.4815476 L61.031746,91.4815476 L61.031746,81.3228175 C61.031746,79.6297619 62.5555556,77.9365079 64.4180556,77.9365079 L77.9628968,77.9365079 Z" id="Shape" fill="#05162B"></path>
                    </g>
                    <path d="M78.7565476,99.894246 L7.64543651,99.894246 C3.75119048,99.894246 0.0263888889,96.1694444 0.0263888889,92.2751984 L0.0263888889,14.3914683 C0.0263888889,10.4972222 3.75119048,6.77242063 7.64543651,6.77242063 L17.8041667,6.77242063 C18.3121032,6.77242063 18.6507937,7.11111111 18.6507937,7.61904762 C18.6507937,8.12698413 18.3121032,8.4656746 17.8041667,8.4656746 L7.64543651,8.4656746 C4.76706349,8.4656746 1.71944444,11.5132937 1.71944444,14.3916667 L1.71944444,92.2751984 C1.71944444,95.1535714 4.76706349,98.2011905 7.64543651,98.2011905 L78.7565476,98.2011905 C81.6349206,98.2011905 84.6825397,95.1535714 84.6825397,92.2751984 L84.6825397,14.3914683 C84.6825397,11.5130952 81.6349206,8.46547619 78.7565476,8.46547619 L68.5978175,8.46547619 C68.089881,8.46547619 67.7511905,8.12678571 67.7511905,7.61884921 C67.7511905,7.1109127 68.089881,6.77222222 68.5978175,6.77222222 L78.7565476,6.77222222 C82.6507937,6.77222222 86.3755952,10.4970238 86.3755952,14.3912698 L86.3755952,92.2748016 C86.3755952,96.169246 82.6507937,99.894246 78.7565476,99.894246 Z M68.5978175,93.121627 C68.4285714,93.121627 68.089881,93.121627 67.9206349,92.952381 C67.5819444,92.6136905 67.5819444,92.105754 67.9206349,91.7672619 L77.910119,81.7777778 L77.910119,15.2380952 L68.5980159,15.2380952 C68.0900794,15.2380952 67.7513889,14.8994048 67.7513889,14.3914683 C67.7513889,13.8835317 68.0900794,13.5448413 68.5980159,13.5448413 L78.756746,13.5448413 C79.2646825,13.5448413 79.603373,13.8835317 79.603373,14.3914683 L79.603373,82.1162698 C79.603373,82.2855159 79.434127,82.6242063 79.434127,82.7934524 L69.2753968,92.9521825 C69.105754,93.121627 68.7672619,93.121627 68.5978175,93.121627 Z M61.8253968,93.121627 L12.7248016,93.121627 C9.50793651,93.121627 6.79880952,90.4126984 6.79880952,87.1956349 L6.79880952,14.3914683 C6.79880952,13.8835317 7.1375,13.5448413 7.64543651,13.5448413 L17.8041667,13.5448413 C18.3121032,13.5448413 18.6507937,13.8835317 18.6507937,14.3914683 C18.6507937,14.8994048 18.3121032,15.2380952 17.8041667,15.2380952 L8.49206349,15.2380952 L8.49206349,87.1958333 C8.49206349,89.5662698 10.3545635,91.4285714 12.7248016,91.4285714 L60.9787698,91.4285714 L60.9787698,82.1164683 C60.9787698,79.9154762 63.0105159,77.8837302 65.2115079,77.8837302 L71.984127,77.8837302 C72.4920635,77.8837302 72.830754,78.2224206 72.830754,78.7303571 C72.830754,79.2382937 72.4920635,79.5769841 71.984127,79.5769841 L65.2117063,79.5769841 C63.8571429,79.5769841 62.6720238,80.9315476 62.6720238,82.1166667 L62.6720238,92.2753968 C62.6720238,92.7831349 62.3333333,93.121627 61.8253968,93.121627 Z M41.5079365,76.1904762 L41.5079365,76.1904762 C41.169246,76.1904762 40.830754,76.0212302 40.6613095,75.6825397 L27.9628968,37.4180556 L22.0369048,55.3650794 C21.8676587,55.7037698 21.5289683,55.8730159 21.1902778,55.8730159 L14.4178571,55.8730159 C13.9099206,55.8730159 13.5712302,55.5343254 13.5712302,55.0263889 C13.5712302,54.5184524 13.9099206,54.1797619 14.4178571,54.1797619 L20.5130952,54.1797619 L27.1162698,34.3702381 C27.2855159,33.6930556 28.4708333,33.6930556 28.6400794,34.3702381 L41.5079365,72.8041667 L52.5132937,44.5289683 C52.6825397,44.1902778 52.8519841,44.0210317 53.1904762,44.0210317 C53.5289683,44.0210317 53.8676587,44.1902778 54.0371032,44.5289683 L58.9472222,54.1797619 L64.3650794,54.1797619 C64.7037698,52.3174603 66.3968254,50.7936508 68.5978175,50.7936508 C70.968254,50.7936508 72.8305556,52.6561508 72.8305556,55.0263889 C72.8305556,57.396627 70.9680556,59.259127 68.5978175,59.259127 C66.5660714,59.259127 64.8730159,57.7353175 64.3650794,55.8728175 L58.4390873,55.8728175 C58.1003968,55.8728175 57.7619048,55.7035714 57.7619048,55.364881 L53.5291667,46.8992063 L42.3545635,75.5128968 C42.185119,76.0212302 41.846627,76.1904762 41.5079365,76.1904762 Z M68.5978175,52.4867063 C67.243254,52.4867063 66.0581349,53.6718254 66.0581349,55.0263889 C66.0581349,56.3809524 67.243254,57.5660714 68.5978175,57.5660714 C69.952381,57.5660714 71.1375,56.3809524 71.1375,55.0263889 C71.1375,53.6718254 69.952381,52.4867063 68.5978175,52.4867063 Z M61.8253968,18.6244048 L24.5767857,18.6244048 C24.0688492,18.6244048 23.7301587,18.2857143 23.7301587,17.7777778 L23.7301587,7.61904762 C23.7301587,7.11111111 24.0688492,6.77242063 24.5767857,6.77242063 L34.2275794,6.77242063 C35.4126984,2.87837302 38.968254,0 43.2009921,0 C47.4337302,0 50.9892857,2.87837302 52.1746032,6.77242063 L61.8253968,6.77242063 C62.3333333,6.77242063 62.6720238,7.11111111 62.6720238,7.61904762 L62.6720238,17.7777778 C62.6720238,18.2857143 62.3333333,18.6244048 61.8253968,18.6244048 Z M25.4232143,16.9311508 L60.9787698,16.9311508 L60.9787698,8.4656746 L51.4972222,8.4656746 C51.1585317,8.4656746 50.8200397,8.12698413 50.6505952,7.78849206 C49.9734127,4.23293651 46.7563492,1.69325397 43.2007937,1.69325397 C39.6452381,1.69325397 36.428373,4.23293651 35.7509921,7.78849206 C35.7509921,8.12718254 35.2430556,8.4656746 34.9043651,8.4656746 L25.4228175,8.4656746 L25.4228175,16.9311508 L25.4232143,16.9311508 Z M43.2009921,11.8517857 C41.8464286,11.8517857 40.6613095,10.6666667 40.6613095,9.31210317 C40.6613095,7.95753968 41.8464286,6.77242063 43.2009921,6.77242063 C44.5555556,6.77242063 45.7406746,7.95753968 45.7406746,9.31210317 C45.7406746,10.6666667 44.5555556,11.8517857 43.2009921,11.8517857 Z M43.2009921,8.4656746 C42.6930556,8.4656746 42.3543651,8.80436508 42.3543651,9.31230159 C42.3543651,9.8202381 42.6930556,10.1589286 43.2009921,10.1589286 C43.7089286,10.1589286 44.047619,9.8202381 44.047619,9.31230159 C44.047619,8.80416667 43.7089286,8.4656746 43.2009921,8.4656746 Z" id="Shape" fill="#51565F"></path>
                </g>
            </g>
        </g>
    </g>
</svg>