<?xml version="1.0" encoding="UTF-8"?>
<svg width="100px" height="100px" viewBox="0 0 100 100" version="1.1" xmlns="http://www.w3.org/2000/svg" xmlns:xlink="http://www.w3.org/1999/xlink">
    <!-- Generator: Sketch 42 (36781) - http://www.bohemiancoding.com/sketch -->
    <title>medical-advice</title>
    <desc>Created with Sketch.</desc>
    <defs></defs>
    <g id="Symbols" stroke="none" stroke-width="1" fill="none" fill-rule="evenodd">
        <g id="medical-advice" fill-rule="nonzero">
            <g id="nurse">
                <g id="Layer_1">
                    <g id="Group" transform="translate(0.776548, 0.778089)">
                        <g id="Group-15">
                            <path d="M97.1791885,97.329793 L73.9862163,97.329793 L77.2995535,84.0503424 C93.8658513,87.3702537 97.1791885,97.329793 97.1791885,97.329793 Z M20.9739856,84.0505369 L24.2873228,97.3299876 L1.09435061,97.3299876 C1.09435061,97.329793 4.40749369,87.3702537 20.9739856,84.0505369 Z" id="Shape" fill="#ECF4F7"></path>
                            <path d="M84.0918268,64.1314581 C84.0918268,64.1314581 89.0617356,74.0909975 80.7784896,74.0909975 L67.359736,74.0909975 L49.1366725,74.0909975 C57.4199185,74.0909975 65.7029703,64.1314581 67.359736,60.8115468 C68.0223258,59.6496654 69.0163075,57.1597806 70.0102893,54.1719188 C71.8326539,48.8600996 73.9862163,41.888422 73.9862163,37.5727513 L73.9862163,30.9329287 L80.6126966,30.9329287 L80.6126966,42.5523265 C80.6128907,57.4916355 84.0918268,64.1314581 84.0918268,64.1314581 Z M49.1366725,74.0909975 L17.4950495,74.0909975 C9.21180353,74.0909975 14.1817123,64.1314581 14.1817123,64.1314581 C14.1817123,64.1314581 17.6606484,55.8317772 17.6606484,42.552521 L17.6606484,30.9329287 L24.2871287,30.9329287 L24.2871287,37.5725568 C24.2871287,41.888422 26.2750922,48.8600996 28.2630557,54.1717242 C29.2570375,57.1595861 30.4166181,59.6494709 30.913609,60.8113523 C32.5703747,64.1314581 40.8536207,74.0909975 49.1366725,74.0909975 Z" id="Shape" fill="#AE938D"></path>
                            <path d="M80.6128907,14.3337613 L80.6128907,30.9329287 L73.9864104,30.9329287 L24.2873228,30.9329287 L17.6606484,30.9329287 L17.6606484,14.3337613 C17.6606484,6.69817927 23.127548,1.05431061 30.9138031,1.05431061 L69.0165017,1.05431061 C76.6369637,1.05431061 80.6128907,6.86410675 80.6128907,14.3337613 Z M70.0102893,54.1719188 L70.0102893,54.1719188 C69.0163075,57.1597806 67.8567268,59.6496654 67.359736,60.8115468 C65.7031644,64.1314581 57.4199185,74.0909975 49.1366725,74.0909975 C40.8534265,74.0909975 32.5703747,64.1314581 30.913609,60.8115468 C30.2510192,59.6496654 29.2570375,57.1597806 28.2630557,54.1719188 L28.2630557,54.1719188 C28.2630557,54.1719188 40.8534265,54.1719188 49.1366725,50.8520075 C57.4199185,54.1719188 70.0102893,54.1719188 70.0102893,54.1719188 Z" id="Shape" fill="#ECF4F7"></path>
                            <path d="M77.2995535,84.0505369 L73.9862163,97.3299876 L24.2871287,97.3299876 L20.9737915,84.0505369 L34.2269462,80.7306256 C34.2269462,80.7306256 40.8534265,90.690165 49.1366725,90.690165 C57.4199185,90.690165 64.0463988,80.7306256 64.0463988,80.7306256 L77.2995535,84.0505369 Z" id="Shape" fill="#3FA9F5"></path>
                            <path d="M73.9862163,30.9329287 L73.9862163,37.5725568 C73.9862163,41.888422 71.9982528,48.8600996 70.0102893,54.1717242 L70.0102893,54.1717242 C70.0102893,54.1717242 57.4199185,54.1717242 49.1366725,50.8518129 C40.8534265,54.1717242 28.2630557,54.1717242 28.2630557,54.1717242 L28.2630557,54.1717242 C26.4406911,48.8599051 24.2871287,41.8882275 24.2871287,37.5725568 L24.2871287,30.9329287 L73.9862163,30.9329287 Z" id="Shape" fill="#FFD0A1"></path>
                            <path d="M73.9862163,98.1598195 L24.2871287,98.1598195 C23.9557368,98.1598195 23.6245389,97.82777 23.4587459,97.495915 L20.3112017,85.0464908 C5.07008348,88.3664021 1.92253931,97.495915 1.7569404,97.6618425 C1.59134149,98.1598195 1.09435061,98.325747 0.762958649,98.1598195 C0.265967773,97.993892 0.10036886,97.495915 0.265967773,97.1638655 C0.431566686,96.6658886 3.91050281,86.7063492 20.8081926,83.3864379 C21.3051835,83.2205104 21.6365754,83.5523654 21.8021743,84.0503424 L24.9497185,96.6656941 L73.3236265,96.6656941 L76.4711706,84.0503424 C76.6367696,83.5523654 76.9681615,83.3864379 77.4651524,83.3864379 C94.3628422,86.7063492 97.8417783,96.8318161 98.0073772,97.1638655 C98.1729761,97.6618425 97.8417783,97.993892 97.5103863,98.1598195 C97.0133955,98.325747 96.6820035,97.993892 96.5164046,97.6618425 C96.5164046,97.495915 93.2030674,88.3662076 77.9621433,85.0464908 L74.8145991,97.495915 C74.6490002,97.82777 74.3176082,98.1598195 73.9862163,98.1598195 Z M49.1366725,91.5201914 C41.5162104,91.5201914 35.3865269,83.7184874 33.8955543,81.7265795 L27.7660648,83.2205104 C27.269074,83.3864379 26.937682,83.0545829 26.7720831,82.556606 C26.6064842,82.058629 26.937682,81.7265795 27.4346729,81.560652 L34.0611532,79.9007937 C34.3925451,79.9007937 34.723743,79.9007937 34.889536,80.2328431 C34.889536,80.3987706 41.3504174,89.860333 49.1366725,89.860333 C56.9229276,89.860333 63.2180159,80.3987706 63.383809,80.2328431 C63.5494079,79.9007937 63.8807998,79.7348662 64.2121918,79.9007937 L70.8386721,81.560652 C71.335663,81.7265795 71.5012619,82.058629 71.5012619,82.556606 C71.335663,83.0545829 71.004271,83.2205104 70.5072801,83.2205104 L64.3777907,81.7265795 C62.8868181,83.7184874 56.7573287,91.5201914 49.1366725,91.5201914 Z M80.7784896,74.9208294 L67.359736,74.9208294 C66.8627451,74.9208294 66.5313531,74.58878 66.5313531,74.090803 C66.5313531,73.592826 66.8627451,73.2607765 67.359736,73.2607765 L80.7784896,73.2607765 C82.4350612,73.2607765 83.594836,72.7627996 84.2574257,71.9327731 C85.5827995,69.9408652 84.0918268,65.9570495 83.4290429,64.6290461 C83.263444,64.2969966 79.7845079,57.6573685 79.7845079,42.7180594 L79.7845079,37.7382898 C79.7845079,37.2403128 80.1158998,36.9082633 80.6128907,36.9082633 C81.1098816,36.9082633 81.4412735,37.2403128 81.4412735,37.7382898 L81.4412735,42.7180594 C81.4412735,57.1593915 84.7546108,63.7990196 84.7546108,63.9651416 C84.9202097,64.1310691 87.5709571,69.7749378 85.5829936,72.928727 C84.7544166,74.256925 83.0978451,74.9208294 80.7784896,74.9208294 Z M49.1366725,74.9208294 C40.0252378,74.9208294 31.5763929,64.1312636 30.2510192,61.1434018 C28.7600466,57.9896125 23.4587459,44.5442344 23.4587459,37.5725568 C23.4587459,37.0745798 23.7901378,36.7425303 24.2871287,36.7425303 C24.7841196,36.7425303 25.1155116,37.0745798 25.1155116,37.5725568 C25.1155116,41.5563725 26.9378761,48.1960006 28.7600466,53.3418923 C31.245001,53.3418923 41.6818094,52.8439153 48.8052805,50.021981 L49.4678703,50.021981 C56.5913415,52.8439153 66.862551,53.1757703 69.5131043,53.3418923 C71.3354688,48.1961951 73.1576393,41.5563725 73.1576393,37.5725568 C73.1576393,37.0745798 73.4890313,36.7425303 73.9860221,36.7425303 C74.483013,36.7425303 74.814405,37.0745798 74.814405,37.5725568 C74.814405,44.5442344 69.6788973,57.9896125 68.0221316,61.1434018 C66.6971462,64.1314581 58.2483013,74.9208294 49.1366725,74.9208294 Z M29.4228305,55.0017507 C30.2512134,57.4916355 31.0794021,59.4835434 31.742186,60.4794974 C33.5645506,63.9653361 41.5164046,73.2609711 49.3024655,73.2609711 C57.0885265,73.2609711 65.0405746,63.9653361 66.8627451,60.4794974 C67.359736,59.4835434 68.1881188,57.4916355 69.1821006,55.0017507 C65.8687633,54.8358232 56.4259367,54.5037737 49.4680645,51.6818394 C42.1788002,54.5039683 32.7359736,54.8358232 29.4228305,55.0017507 Z M30.9138031,74.9208294 L17.4950495,74.9208294 C15.175694,74.9208294 13.5191225,74.256925 12.6907397,72.7629941 C10.7027762,69.6092048 13.3533295,63.9653361 13.5191225,63.7994087 C13.5191225,63.7994087 16.9980586,55.4997277 16.9980586,42.5523265 L16.9980586,37.5725568 C16.9980586,37.0745798 17.3294506,36.7425303 17.8264415,36.7425303 C18.3234323,36.7425303 18.6548243,37.0745798 18.6548243,37.5725568 L18.6548243,42.5523265 C18.6548243,55.8317772 15.1758882,64.1312636 15.1758882,64.4633131 C14.5132984,65.7913165 13.0223258,69.7751323 14.1819064,71.9329676 C14.6788973,72.9289216 16.004271,73.2609711 17.6608426,73.2609711 L31.0795962,73.2609711 C31.5765871,73.2609711 31.907979,73.5930205 31.907979,74.0909975 C31.907979,74.5889745 31.410794,74.9208294 30.9138031,74.9208294 Z M57.4199185,45.0422113 C56.9229276,45.0422113 56.5915356,44.7101618 56.5915356,44.2121849 L56.5915356,41.888422 C55.2661619,42.2204715 54.9349641,43.0503035 54.769171,43.0503035 C54.6035721,43.3823529 54.1065812,43.5482804 53.6095904,43.3823529 C53.2781984,43.2164255 53.1125995,42.7184485 53.2781984,42.2204715 C53.2781984,42.054544 54.4377791,40.0626362 57.2541254,40.0626362 C60.0704718,40.0626362 61.2300524,42.054544 61.2300524,42.2204715 C61.3956513,42.552521 61.2300524,43.050498 60.8986605,43.3823529 C60.5672685,43.5482804 60.0702776,43.3823529 59.7390798,43.0503035 C59.7390798,43.0503035 59.2420889,42.220277 57.9167152,41.888422 L57.9167152,44.2123794 C58.2483013,44.7103564 57.9169093,45.0422113 57.4199185,45.0422113 Z M40.8536207,45.0422113 C40.3566298,45.0422113 40.0252378,44.7101618 40.0252378,44.2121849 L40.0252378,41.888422 C38.6998641,42.2204715 38.3686663,43.0503035 38.2028732,43.0503035 C38.0372743,43.3823529 37.5402834,43.5482804 37.0432926,43.3823529 C36.7119006,43.2164255 36.5463017,42.7184485 36.7119006,42.2204715 C36.7119006,42.054544 37.8714813,40.0626362 40.6878276,40.0626362 C43.5041739,40.0626362 44.6637546,42.054544 44.6637546,42.2204715 C44.8293535,42.552521 44.6637546,43.050498 44.3323626,43.3823529 C44.0009707,43.5482804 43.5039798,43.3823529 43.172782,43.0503035 C43.172782,43.0503035 42.6757911,42.220277 41.3504174,41.888422 L41.3504174,44.2123794 C41.6818094,44.7103564 41.3506115,45.0422113 40.8536207,45.0422113 Z M80.6128907,31.7629552 L17.6606484,31.7629552 C17.1636575,31.7629552 16.8322656,31.4309057 16.8322656,30.9329287 L16.8322656,14.3337613 C16.8322656,6.2002023 22.7961561,0.22447868 30.913609,0.22447868 L69.0163075,0.22447868 C76.6367696,0.22447868 81.4410794,5.70222533 81.4410794,14.3337613 L81.4410794,30.9329287 C81.4410794,31.4309057 81.1098816,31.7629552 80.6128907,31.7629552 Z M18.4890313,30.1029023 L79.7845079,30.1029023 L79.7845079,14.3337613 C79.7845079,8.35803766 76.9681615,1.88433707 69.0163075,1.88433707 L30.9138031,1.88433707 C23.790332,1.88433707 18.4890313,7.19615624 18.4890313,14.3337613 L18.4890313,30.1029023 L18.4890313,30.1029023 Z M49.1366725,21.8034158 C48.6396816,21.8034158 48.3082897,21.4713663 48.3082897,20.9733894 L48.3082897,16.8236461 L44.1667637,16.8236461 C43.6697729,16.8236461 43.3383809,16.4915966 43.3383809,15.9936197 C43.3383809,15.4956427 43.6697729,15.1635932 44.1667637,15.1635932 L48.3082897,15.1635932 L48.3082897,11.01385 C48.3082897,10.515873 48.6396816,10.1838235 49.1366725,10.1838235 C49.6336634,10.1838235 49.9650553,10.515873 49.9650553,11.01385 L49.9650553,15.1635932 L54.1065812,15.1635932 C54.6035721,15.1635932 54.9349641,15.4956427 54.9349641,15.9936197 C54.9349641,16.4915966 54.6035721,16.8236461 54.1065812,16.8236461 L49.9650553,16.8236461 L49.9650553,20.9733894 C49.9650553,21.4713663 49.6336634,21.8034158 49.1366725,21.8034158 Z" id="Shape" fill="#51565F"></path>
                        </g>
                    </g>
                </g>
            </g>
        </g>
    </g>
</svg>