<?xml version="1.0" encoding="UTF-8"?>
<svg width="100px" height="100px" viewBox="0 0 100 100" version="1.1" xmlns="http://www.w3.org/2000/svg" xmlns:xlink="http://www.w3.org/1999/xlink">
    <!-- Generator: Sketch 42 (36781) - http://www.bohemiancoding.com/sketch -->
    <title>medicines</title>
    <desc>Created with Sketch.</desc>
    <defs></defs>
    <g id="Symbols" stroke="none" stroke-width="1" fill="none" fill-rule="evenodd">
        <g id="medicines" fill-rule="nonzero">
            <g id="Group-14-Copy">
                <path d="M68.5714286,14.3914683 L68.5714286,21.1638889 L61.7990079,21.1638889 L61.7990079,14.3914683 C61.7990079,10.6666667 58.7513889,7.61904762 55.0265873,7.61904762 L44.8678571,7.61904762 C41.1428571,7.61904762 38.0952381,10.6666667 38.0952381,14.3914683 L38.0952381,21.1638889 L31.3228175,21.1638889 L31.3228175,14.3914683 C31.3228175,7.44960317 37.756746,0.846428571 44.8678571,0.846428571 L55.0265873,0.846428571 C62.1375,0.846626984 68.5714286,7.28035714 68.5714286,14.3914683" id="Shape" fill="#142944"></path>
                <path d="M21.1640873,41.4815476 L21.1640873,49.9472222 C21.1640873,50.7938492 20.3174603,51.6402778 19.4710317,51.6402778 L16.0847222,51.6402778 C15.2380952,51.6402778 14.3916667,50.7936508 14.3916667,49.9472222 L14.3916667,41.4815476 L14.3916667,33.015873 C14.3916667,32.169246 15.2382937,31.3228175 16.0847222,31.3228175 L19.4710317,31.3228175 C20.3176587,31.3228175 21.1640873,32.1694444 21.1640873,33.015873 L21.1640873,41.4815476 L21.1640873,41.4815476 Z M85.5025794,41.4815476 L85.5025794,49.9472222 C85.5025794,50.7938492 84.8253968,51.6402778 83.8095238,51.6402778 L80.4232143,51.6402778 C79.4073413,51.6402778 78.7301587,50.7936508 78.7301587,49.9472222 L78.7301587,41.4815476 L78.7301587,33.015873 C78.7301587,32.169246 79.4073413,31.3228175 80.4232143,31.3228175 L83.8095238,31.3228175 C84.8253968,31.3228175 85.5025794,32.1694444 85.5025794,33.015873 L85.5025794,41.4815476 Z" id="Shape" fill="#142944"></path>
                <path d="M95.6613095,41.4815476 L85.5025794,41.4815476 L85.5025794,33.015873 C85.5025794,32.169246 84.8253968,31.3228175 83.8095238,31.3228175 L80.4232143,31.3228175 C79.4073413,31.3228175 78.7301587,32.1694444 78.7301587,33.015873 L78.7301587,41.4815476 L21.1640873,41.4815476 L21.1640873,33.015873 C21.1640873,32.169246 20.3174603,31.3228175 19.4710317,31.3228175 L16.0847222,31.3228175 C15.2380952,31.3228175 14.3916667,32.1694444 14.3916667,33.015873 L14.3916667,41.4815476 L4.23293651,41.4815476 C2.20119048,41.4815476 0.846626984,40.1269841 0.846626984,38.0952381 L0.846626984,27.9365079 C0.846626984,24.2117063 3.89424603,21.1640873 7.61904762,21.1640873 L31.3228175,21.1640873 L38.0952381,21.1640873 L61.7990079,21.1640873 L68.5714286,21.1640873 L92.2751984,21.1640873 C96,21.1640873 99.047619,24.2117063 99.047619,27.9365079 L99.047619,38.0952381 C99.047619,40.1269841 97.5238095,41.4815476 95.6613095,41.4815476 Z M95.6613095,92.2751984 C95.6613095,96 92.6136905,99.047619 88.8888889,99.047619 L11.0053571,99.047619 C7.28055556,99.047619 4.23293651,96 4.23293651,92.2751984 L4.23293651,41.4815476 L14.3916667,41.4815476 L14.3916667,49.9472222 C14.3916667,50.7938492 15.2382937,51.6402778 16.0847222,51.6402778 L19.4710317,51.6402778 C20.3176587,51.6402778 21.1640873,50.7936508 21.1640873,49.9472222 L21.1640873,41.4815476 L78.7301587,41.4815476 L78.7301587,49.9472222 C78.7301587,50.7938492 79.4073413,51.6402778 80.4232143,51.6402778 L83.8095238,51.6402778 C84.8253968,51.6402778 85.5025794,50.7936508 85.5025794,49.9472222 L85.5025794,41.4815476 L95.6613095,41.4815476 L95.6613095,92.2751984 Z" id="Shape" fill="#ECF4F7"></path>
                <polygon id="Shape" fill="#3fa9f5" points="65.185119 65.185119 65.185119 75.3438492 55.0263889 75.3438492 55.0263889 85.5025794 44.8676587 85.5025794 44.8676587 75.3438492 34.7089286 75.3438492 34.7089286 65.185119 44.8676587 65.185119 44.8676587 55.0263889 55.0263889 55.0263889 55.0263889 65.185119"></polygon>
                <path d="M88.8888889,99.894246 L11.0053571,99.894246 C6.77261905,99.894246 3.38630952,96.5079365 3.38630952,92.2751984 L3.38630952,42.3279762 C1.35456349,41.9894841 0,40.2962302 0,38.0952381 L0,27.9365079 C0,23.7037698 3.38630952,20.3174603 7.61904762,20.3174603 L92.2751984,20.3174603 C96.5079365,20.3174603 99.894246,23.7037698 99.894246,27.9365079 L99.894246,38.0952381 C99.894246,40.4656746 98.031746,42.3279762 95.6615079,42.3279762 L85.5027778,42.3279762 C84.9948413,42.3279762 84.6561508,41.9892857 84.6561508,41.4813492 L84.6561508,33.015873 C84.6561508,32.5079365 84.3174603,32.169246 83.8095238,32.169246 L80.4232143,32.169246 C79.9152778,32.169246 79.5765873,32.5079365 79.5765873,33.015873 L79.5765873,41.4815476 C79.5765873,41.9894841 79.2378968,42.3281746 78.7299603,42.3281746 L21.1640873,42.3281746 C20.6561508,42.3281746 20.3174603,41.9894841 20.3174603,41.4815476 L20.3174603,33.015873 C20.3174603,32.5079365 19.9787698,32.169246 19.4708333,32.169246 L16.0847222,32.169246 C15.5767857,32.169246 15.2380952,32.5079365 15.2380952,33.015873 L15.2380952,41.4815476 C15.2380952,41.9894841 14.8994048,42.3281746 14.3914683,42.3281746 L11.0053571,42.3281746 C10.4974206,42.3281746 10.1587302,41.9894841 10.1587302,41.4815476 C10.1587302,40.9736111 10.4974206,40.6349206 11.0053571,40.6349206 L13.5450397,40.6349206 L13.5450397,33.015873 C13.5450397,31.6613095 14.7301587,30.4761905 16.0847222,30.4761905 L19.4710317,30.4761905 C20.8255952,30.4761905 22.0107143,31.6613095 22.0107143,33.015873 L22.0107143,40.6349206 L77.8837302,40.6349206 L77.8837302,33.015873 C77.8837302,31.6613095 79.0688492,30.4761905 80.4234127,30.4761905 L83.8095238,30.4761905 C85.1640873,30.4761905 86.3492063,31.6613095 86.3492063,33.015873 L86.3492063,40.6349206 L95.6613095,40.6349206 C97.185119,40.6349206 98.2009921,39.6190476 98.2009921,38.0952381 L98.2009921,27.9365079 C98.2009921,24.7196429 95.4920635,22.0105159 92.275,22.0105159 L7.61904762,22.0105159 C4.40218254,22.0105159 1.69305556,24.7194444 1.69305556,27.9365079 L1.69305556,38.0952381 C1.69305556,39.6190476 2.70892857,40.6349206 4.2327381,40.6349206 C4.7406746,40.6349206 5.07936508,40.9736111 5.07936508,41.4815476 L5.07936508,92.2751984 C5.07936508,95.4920635 7.78829365,98.2011905 11.0053571,98.2011905 L88.8888889,98.2011905 C92.105754,98.2011905 94.814881,95.4922619 94.814881,92.2751984 L94.814881,48.2539683 C94.814881,47.7460317 95.1535714,47.4073413 95.6615079,47.4073413 C96.1694444,47.4073413 96.5081349,47.7460317 96.5081349,48.2539683 L96.5081349,92.2751984 C96.5079365,96.5079365 93.121627,99.894246 88.8888889,99.894246 Z M55.0263889,86.3492063 L44.8676587,86.3492063 C44.3597222,86.3492063 44.0210317,86.0105159 44.0210317,85.5025794 L44.0210317,76.1904762 L34.7089286,76.1904762 C34.2009921,76.1904762 33.8623016,75.8517857 33.8623016,75.3438492 L33.8623016,65.185119 C33.8623016,64.6771825 34.2009921,64.3384921 34.7089286,64.3384921 L44.0210317,64.3384921 L44.0210317,55.0263889 C44.0210317,54.5184524 44.3597222,54.1797619 44.8676587,54.1797619 L55.0263889,54.1797619 C55.5343254,54.1797619 55.8730159,54.5184524 55.8730159,55.0263889 L55.8730159,64.3384921 L65.185119,64.3384921 C65.6930556,64.3384921 66.031746,64.6771825 66.031746,65.185119 L66.031746,75.3438492 C66.031746,75.8517857 65.6930556,76.1904762 65.185119,76.1904762 L55.8730159,76.1904762 L55.8730159,85.5025794 C55.8730159,86.0105159 55.5343254,86.3492063 55.0263889,86.3492063 Z M45.7142857,84.6561508 L54.1799603,84.6561508 L54.1799603,75.3440476 C54.1799603,74.8361111 54.5186508,74.4974206 55.0265873,74.4974206 L64.3386905,74.4974206 L64.3386905,66.031746 L55.0265873,66.031746 C54.5186508,66.031746 54.1799603,65.6930556 54.1799603,65.185119 L54.1799603,55.8730159 L45.7142857,55.8730159 L45.7142857,65.185119 C45.7142857,65.6930556 45.3755952,66.031746 44.8676587,66.031746 L35.5555556,66.031746 L35.5555556,74.4974206 L44.8676587,74.4974206 C45.3755952,74.4974206 45.7142857,74.8361111 45.7142857,75.3440476 L45.7142857,84.6561508 L45.7142857,84.6561508 Z M83.8095238,52.4867063 L80.4232143,52.4867063 C79.0686508,52.4867063 77.8835317,51.3015873 77.8835317,49.9470238 L77.8835317,48.2539683 C77.8835317,47.7460317 78.2222222,47.4073413 78.7301587,47.4073413 C79.2380952,47.4073413 79.5767857,47.7460317 79.5767857,48.2539683 L79.5767857,49.9470238 C79.5767857,50.4549603 79.9154762,50.7936508 80.4234127,50.7936508 L83.8095238,50.7936508 C84.3174603,50.7936508 84.6561508,50.4549603 84.6561508,49.9470238 L84.6561508,48.2539683 C84.6561508,47.7460317 84.9948413,47.4073413 85.5027778,47.4073413 C86.0107143,47.4073413 86.3494048,47.7460317 86.3494048,48.2539683 L86.3494048,49.9470238 C86.3492063,51.3015873 85.1640873,52.4867063 83.8095238,52.4867063 Z M19.4708333,52.4867063 L16.0847222,52.4867063 C14.7301587,52.4867063 13.5450397,51.3015873 13.5450397,49.9470238 L13.5450397,48.2539683 C13.5450397,47.7460317 13.8837302,47.4073413 14.3916667,47.4073413 C14.8996032,47.4073413 15.2382937,47.7460317 15.2382937,48.2539683 L15.2382937,49.9470238 C15.2382937,50.4549603 15.5769841,50.7936508 16.0849206,50.7936508 L19.4712302,50.7936508 C19.9791667,50.7936508 20.3178571,50.4549603 20.3178571,49.9470238 L20.3178571,48.2539683 C20.3178571,47.7460317 20.6565476,47.4073413 21.1644841,47.4073413 C21.6724206,47.4073413 22.0111111,47.7460317 22.0111111,48.2539683 L22.0111111,49.9470238 C22.0105159,51.3015873 20.8253968,52.4867063 19.4708333,52.4867063 Z M68.5714286,15.2380952 C68.0634921,15.2380952 67.7248016,14.8994048 67.7248016,14.3914683 C67.7248016,7.78829365 61.6295635,1.69305556 55.0263889,1.69305556 L44.8676587,1.69305556 C38.2644841,1.69305556 32.169246,7.78829365 32.169246,14.3914683 C32.169246,14.8994048 31.8305556,15.2380952 31.322619,15.2380952 C30.8146825,15.2380952 30.4759921,14.8994048 30.4759921,14.3914683 C30.4761905,6.94186508 37.4180556,0 44.8676587,0 L55.0263889,0 C62.4761905,0 69.4178571,6.94186508 69.4178571,14.3914683 C69.4180556,14.8994048 69.0793651,15.2380952 68.5714286,15.2380952 Z M61.7990079,15.2380952 C61.2910714,15.2380952 60.952381,14.8994048 60.952381,14.3914683 C60.952381,11.1746032 58.2434524,8.46547619 55.0263889,8.46547619 L44.8676587,8.46547619 C41.6507937,8.46547619 38.9416667,11.1744048 38.9416667,14.3914683 C38.9416667,14.8994048 38.6029762,15.2380952 38.0950397,15.2380952 C37.5871032,15.2380952 37.2484127,14.8994048 37.2484127,14.3914683 C37.2484127,10.1587302 40.6347222,6.77242063 44.8674603,6.77242063 L55.0261905,6.77242063 C59.2589286,6.77242063 62.6452381,10.1587302 62.6452381,14.3914683 C62.6454365,14.8994048 62.3069444,15.2380952 61.7990079,15.2380952 Z" id="Shape" fill="#51565F"></path>
            </g>
        </g>
    </g>
</svg>